<svg xmlns="http://www.w3.org/2000/svg" width="262.813" height="405.931" viewBox="0 0 262.813 405.931">
  <g id="Group_987" data-name="Group 987" transform="translate(-132.332 -162.341)" opacity="0.45">
    <g id="Group_979" data-name="Group 979" transform="translate(137.386 162.341)">
      <g id="Group_977" data-name="Group 977" transform="translate(8.391 11.06)" opacity="0.3">
        <path id="Path_4289" data-name="Path 4289" d="M207.407,230.825a2.631,2.631,0,1,0,3.247,1.816A2.634,2.634,0,0,0,207.407,230.825Zm.729,2.58-.027-.1a.05.05,0,0,1,.062.034Z" transform="translate(-182.413 -207.646)" fill="#606060"/>
        <path id="Path_4290" data-name="Path 4290" d="M210.634,202.956a1.291,1.291,0,0,0-1.593-.891l-2.992.846a22.334,22.334,0,0,0-25.888-14.482l-.845-2.992a1.29,1.29,0,1,0-2.483.7l.845,2.992A22.334,22.334,0,0,0,163.2,215.018l-2.992.845a1.29,1.29,0,1,0,.7,2.483l2.992-.845a22.335,22.335,0,0,0,25.888,14.483l.845,2.991a1.29,1.29,0,1,0,2.483-.7l-.845-2.992a22.334,22.334,0,0,0,14.482-25.889l2.992-.845A1.291,1.291,0,0,0,210.634,202.956Zm-19.069,25.837-.921-3.261a1.29,1.29,0,1,0-2.483.7l.921,3.261a19.749,19.749,0,0,1-22.7-12.7l3.261-.921a1.29,1.29,0,0,0-.7-2.483l-3.26.921a19.749,19.749,0,0,1,12.7-22.7l.921,3.26a1.29,1.29,0,1,0,2.483-.7l-.921-3.26a19.748,19.748,0,0,1,22.695,12.7l-3.26.921a1.29,1.29,0,1,0,.7,2.483l3.26-.921A19.748,19.748,0,0,1,191.565,228.793Z" transform="translate(-159.263 -184.496)" fill="#606060"/>
      </g>
      <g id="Group_978" data-name="Group 978" transform="translate(0)">
        <path id="Path_4291" data-name="Path 4291" d="M190.6,208.67a2.631,2.631,0,1,0,3.247,1.816A2.634,2.634,0,0,0,190.6,208.67Zm.728,2.58-.027-.1a.049.049,0,0,1,.062.033Z" transform="translate(-165.606 -185.491)" fill="#606060"/>
        <path id="Path_4292" data-name="Path 4292" d="M193.827,180.8a1.291,1.291,0,0,0-1.593-.891l-2.992.845a22.334,22.334,0,0,0-25.888-14.482l-.845-2.992a1.29,1.29,0,0,0-2.484.7l.846,2.992a22.334,22.334,0,0,0-14.482,25.888l-2.992.845a1.29,1.29,0,1,0,.7,2.484l2.992-.846a22.335,22.335,0,0,0,25.888,14.483l.845,2.991a1.29,1.29,0,0,0,2.483-.7l-.845-2.991a22.335,22.335,0,0,0,14.482-25.889l2.992-.845A1.291,1.291,0,0,0,193.827,180.8Zm-19.069,25.837-.921-3.261a1.29,1.29,0,1,0-2.483.7l.921,3.261a19.749,19.749,0,0,1-22.7-12.7l3.26-.921a1.29,1.29,0,1,0-.7-2.483l-3.26.921a19.749,19.749,0,0,1,12.7-22.7l.921,3.26a1.29,1.29,0,0,0,2.483-.7l-.921-3.26a19.749,19.749,0,0,1,22.7,12.7l-3.26.921a1.29,1.29,0,1,0,.7,2.483l3.26-.921A19.748,19.748,0,0,1,174.758,206.638Z" transform="translate(-142.456 -162.341)" fill="#606060"/>
      </g>
    </g>
    <g id="Group_983" data-name="Group 983" transform="translate(283.166 277.688)">
      <g id="Group_982" data-name="Group 982">
        <path id="Path_4293" data-name="Path 4293" d="M506.054,447.653l-10.825,8.652a1.978,1.978,0,0,1-1.158.435c-2.364.1-3.977-1.283-4.424-3.8a1.971,1.971,0,0,1,.013-.766,4.4,4.4,0,1,0-4.7,3.471,2.075,2.075,0,0,1,.276.045,4.754,4.754,0,0,1,2.885,1.637,3.969,3.969,0,0,1,.666,3.65,1.974,1.974,0,0,1-.674,1.015l-10.363,8.282a2,2,0,0,1-2.8-.312l-22.771-28.491a1.994,1.994,0,0,1,.312-2.8L462.7,430.51a1.992,1.992,0,0,1,.982-.418,3.972,3.972,0,0,1,3.8,1.412,5.137,5.137,0,0,1,1,2.349,1.952,1.952,0,0,1-.014.763,4.4,4.4,0,1,0,4.7-3.471,2.121,2.121,0,0,1-.283-.047,4.852,4.852,0,0,1-2.893-1.653,3.97,3.97,0,0,1-.546-3.962,1.992,1.992,0,0,1,.622-.857l10.731-8.576a1.994,1.994,0,0,1,2.8.313l8.089,10.12c.018.021.058.062.1.1,1,.2,1.712-.493,1.912-1.632,0-.022.008-.044.013-.065a6.876,6.876,0,0,1,2.57-4.745,6.94,6.94,0,1,1,3.012,12.233c-1.348.268-1.6.918-1.606,1.614a.057.057,0,0,0,.008.011l8.675,10.855A1.994,1.994,0,0,1,506.054,447.653Zm-19.718,12.636v0Zm7.45-6.089,10.247-8.19-8.34-10.435a2.524,2.524,0,0,1-.55-1.3c-.1-2.367,1.282-3.98,3.8-4.426a1.985,1.985,0,0,1,.758.011,4.4,4.4,0,1,0-3.463-4.7,2.018,2.018,0,0,1-.045.279,4.748,4.748,0,0,1-1.636,2.882,3.966,3.966,0,0,1-3.652.666,2.87,2.87,0,0,1-1.208-.916l-7.744-9.689-10.173,8.132a1.383,1.383,0,0,0,.2,1.341,2.335,2.335,0,0,0,1.4.745l.067.014a6.877,6.877,0,0,1,4.744,2.569A6.94,6.94,0,1,1,465.95,434.2a2.556,2.556,0,0,0-.459-1.1,1.431,1.431,0,0,0-1.327-.494l-9.654,7.716,22.081,27.627,9.785-7.821a1.375,1.375,0,0,0-.245-1.205,2.246,2.246,0,0,0-1.384-.728l-.064-.013a6.874,6.874,0,0,1-4.745-2.57,6.94,6.94,0,1,1,12.234-3.01C492.439,453.943,493.09,454.195,493.785,454.2Zm-1.635-1.5v0Zm0-.207v0Zm-7.523,5.67h0Zm13.01-24.255Zm-6.046-7.371.006,0Zm-25.62,7.549v0Z" transform="translate(-443.115 -404.518)" fill="#3b9bff" opacity="0.3"/>
        <g id="Group_981" data-name="Group 981">
          <g id="Group_980" data-name="Group 980">
            <path id="Path_4294" data-name="Path 4294" d="M488.774,425.427l-10.825,8.652a1.979,1.979,0,0,1-1.158.435c-2.364.1-3.977-1.283-4.424-3.8a1.968,1.968,0,0,1,.013-.766,4.4,4.4,0,1,0-4.7,3.471,2.066,2.066,0,0,1,.276.045,4.751,4.751,0,0,1,2.885,1.637,3.966,3.966,0,0,1,.666,3.65,1.967,1.967,0,0,1-.673,1.014l-10.363,8.283a1.994,1.994,0,0,1-2.8-.312L434.9,419.246a2,2,0,0,1,.313-2.8l10.211-8.161a2,2,0,0,1,.983-.418,3.972,3.972,0,0,1,3.8,1.412,5.137,5.137,0,0,1,1,2.349,1.97,1.97,0,0,1-.014.763,4.4,4.4,0,1,0,4.7-3.471,2.131,2.131,0,0,1-.282-.047,4.854,4.854,0,0,1-2.893-1.653,3.972,3.972,0,0,1-.546-3.962,1.99,1.99,0,0,1,.622-.857l10.731-8.576a1.994,1.994,0,0,1,2.8.313l8.089,10.12c.018.021.058.062.1.1,1,.2,1.713-.492,1.912-1.632,0-.022.008-.044.013-.065a6.874,6.874,0,0,1,2.57-4.745,6.94,6.94,0,1,1,3.012,12.233c-1.348.268-1.6.918-1.606,1.614l.008.011,8.676,10.855A2,2,0,0,1,488.774,425.427Zm-19.718,12.635v0Zm7.45-6.088,10.247-8.19-8.341-10.435a2.528,2.528,0,0,1-.549-1.3c-.1-2.367,1.282-3.98,3.8-4.426a1.984,1.984,0,0,1,.758.011,4.4,4.4,0,1,0-3.463-4.7,2.011,2.011,0,0,1-.046.279,4.745,4.745,0,0,1-1.635,2.882,3.966,3.966,0,0,1-3.652.666,2.866,2.866,0,0,1-1.208-.916l-7.744-9.689L454.5,404.288a1.382,1.382,0,0,0,.2,1.341,2.334,2.334,0,0,0,1.4.745l.067.014a6.873,6.873,0,0,1,4.744,2.569,6.94,6.94,0,1,1-12.234,3.012,2.57,2.57,0,0,0-.459-1.1,1.431,1.431,0,0,0-1.328-.494l-9.654,7.716,22.082,27.628,9.785-7.82a1.375,1.375,0,0,0-.245-1.205,2.246,2.246,0,0,0-1.385-.728l-.064-.013a6.873,6.873,0,0,1-4.745-2.57,6.94,6.94,0,1,1,12.234-3.01C475.16,431.717,475.811,431.969,476.506,431.974Zm-1.635-1.5v0Zm0-.207v0Zm-7.523,5.67h0Zm13.01-24.255Zm-6.046-7.371.006,0Zm-25.62,7.548v0Z" transform="translate(-434.462 -393.388)" fill="#3b9bff"/>
          </g>
        </g>
      </g>
    </g>
    <g id="Group_984" data-name="Group 984" transform="translate(358.185 166.214)">
      <path id="Path_4295" data-name="Path 4295" d="M629.5,206.106a.46.46,0,0,1-.2.084l-9.448,1.445-4.166,8.6a.459.459,0,0,1-.823.006l-4.294-8.539-9.469-1.3a.459.459,0,0,1-.261-.781l6.795-6.722-1.686-9.409a.459.459,0,0,1,.662-.489l8.493,4.384,8.427-4.511a.459.459,0,0,1,.669.479l-1.545,9.432,6.894,6.62a.46.46,0,0,1-.045.7Zm-10.232.743a.459.459,0,0,1,.2-.084l8.767-1.341-6.4-6.143a.459.459,0,0,1-.135-.405l1.433-8.753-7.819,4.186a.459.459,0,0,1-.427,0l-7.881-4.068,1.565,8.73a.46.46,0,0,1-.129.407l-6.3,6.238,8.786,1.21a.46.46,0,0,1,.348.249L615.265,215l3.866-7.982A.455.455,0,0,1,619.272,206.849Z" transform="translate(-592.73 -179.473)" fill="#f4a70f" opacity="0.3"/>
      <path id="Path_4296" data-name="Path 4296" d="M613.53,187.384a.459.459,0,0,1-.2.084l-9.448,1.445-4.166,8.6a.459.459,0,0,1-.823.006l-4.294-8.539-9.468-1.3a.459.459,0,0,1-.26-.781l6.794-6.722-1.686-9.408a.459.459,0,0,1,.663-.489l8.493,4.384,8.427-4.511a.459.459,0,0,1,.669.479l-1.545,9.432,6.894,6.62a.459.459,0,0,1-.045.7Zm-10.232.743a.46.46,0,0,1,.2-.084l8.767-1.341-6.4-6.143a.459.459,0,0,1-.135-.405l1.434-8.753-7.82,4.186a.458.458,0,0,1-.427,0l-7.881-4.068,1.565,8.73a.459.459,0,0,1-.129.407l-6.3,6.238,8.786,1.21a.458.458,0,0,1,.347.248l3.984,7.924,3.866-7.983A.461.461,0,0,1,603.3,188.127Z" transform="translate(-584.731 -170.098)" fill="#f4a70f"/>
    </g>
    <g id="Group_985" data-name="Group 985" transform="translate(146.635 486.509)">
      <path id="Path_4297" data-name="Path 4297" d="M210.833,908.708l-6.184-3.258a1.907,1.907,0,0,1-.8-2.577l2.368-4.5-4.5-2.368a1.908,1.908,0,0,1-.8-2.577l2.368-4.5-4.5-2.369a1.907,1.907,0,0,1-.8-2.577l2.369-4.5-4.5-2.368a1.908,1.908,0,0,1-.8-2.577l2.368-4.5-4.5-2.368a1.908,1.908,0,0,1-.8-2.577l9.772-18.552a1.908,1.908,0,0,1,2.577-.8l4.5,2.368,2.368-4.5a1.907,1.907,0,0,1,2.577-.8l12.369,6.514a1.908,1.908,0,0,1,.8,2.577l-2.368,4.5,4.5,2.368a1.907,1.907,0,0,1,.8,2.577l-2.368,4.5,2.809,1.48,2.368-4.5a1.907,1.907,0,0,1,2.577-.8l4.5,2.368,2.368-4.5a1.908,1.908,0,0,1,2.577-.8l12.369,6.514a1.908,1.908,0,0,1,.8,2.577l-2.368,4.5,4.5,2.368a1.907,1.907,0,0,1,.8,2.577L251.175,896.2a1.908,1.908,0,0,1-2.577.8l-4.5-2.368-2.368,4.5a1.908,1.908,0,0,1-2.577.8l-4.5-2.369-2.369,4.5a1.908,1.908,0,0,1-2.577.8l-4.5-2.368-2.368,4.5a1.907,1.907,0,0,1-2.577.8l-4.5-2.368-2.368,4.5A1.908,1.908,0,0,1,210.833,908.708Zm-2.719-5.744,2.809,1.479,2.368-4.5a1.908,1.908,0,0,1,2.577-.8l4.5,2.368,2.368-4.5a1.908,1.908,0,0,1,2.577-.8l4.5,2.368,2.369-4.5a1.908,1.908,0,0,1,2.577-.8l4.5,2.368,2.368-4.5a1.908,1.908,0,0,1,2.577-.8l4.5,2.368,7.994-15.177-4.5-2.369a1.908,1.908,0,0,1-.8-2.577l2.368-4.5-8.993-4.736-2.368,4.5a1.908,1.908,0,0,1-2.577.8l-4.5-2.368-2.368,4.5a1.907,1.907,0,0,1-2.577.8l-6.185-3.257a1.907,1.907,0,0,1-.8-2.577l2.368-4.5-4.5-2.368a1.908,1.908,0,0,1-.8-2.577l2.368-4.5-8.993-4.737-2.368,4.5a1.907,1.907,0,0,1-2.577.8l-4.5-2.368L196.407,865.2l4.5,2.368a1.908,1.908,0,0,1,.8,2.577l-2.368,4.5,4.5,2.368a1.907,1.907,0,0,1,.8,2.577l-2.368,4.5,4.5,2.368a1.908,1.908,0,0,1,.8,2.577l-2.368,4.5,4.5,2.368a1.908,1.908,0,0,1,.8,2.577Z" transform="translate(-176.476 -827.164)" fill="#ef4848" opacity="0.3"/>
      <path id="Path_4298" data-name="Path 4298" d="M179.892,877.768l-6.184-3.258a1.907,1.907,0,0,1-.8-2.577l2.368-4.5-4.5-2.368a1.908,1.908,0,0,1-.8-2.577l2.368-4.5-4.5-2.368a1.907,1.907,0,0,1-.8-2.577l2.368-4.5-4.5-2.369a1.908,1.908,0,0,1-.8-2.577l2.368-4.5-4.5-2.368a1.907,1.907,0,0,1-.8-2.577l9.772-18.553a1.907,1.907,0,0,1,2.577-.8l4.5,2.368,2.368-4.5a1.907,1.907,0,0,1,2.577-.8l12.369,6.515a1.908,1.908,0,0,1,.8,2.577l-2.368,4.5,4.5,2.368a1.907,1.907,0,0,1,.8,2.576l-2.368,4.5,2.809,1.479,2.368-4.5a1.909,1.909,0,0,1,2.577-.8l4.5,2.369,2.368-4.5a1.907,1.907,0,0,1,2.577-.8l12.369,6.515a1.908,1.908,0,0,1,.8,2.577l-2.368,4.5,4.5,2.368a1.908,1.908,0,0,1,.8,2.577l-9.772,18.552a1.908,1.908,0,0,1-2.577.8l-4.5-2.368-2.368,4.5a1.907,1.907,0,0,1-2.577.8l-4.5-2.368-2.368,4.5a1.907,1.907,0,0,1-2.577.8l-4.5-2.368-2.368,4.5a1.908,1.908,0,0,1-2.577.8l-4.5-2.368-2.368,4.5A1.908,1.908,0,0,1,179.892,877.768Zm-2.719-5.744,2.809,1.48,2.368-4.5a1.908,1.908,0,0,1,2.577-.8l4.5,2.368,2.368-4.5a1.908,1.908,0,0,1,2.577-.8l4.5,2.368,2.369-4.5a1.907,1.907,0,0,1,2.577-.8l4.5,2.368,2.368-4.5a1.907,1.907,0,0,1,2.577-.8l4.5,2.368,7.994-15.177-4.5-2.368a1.908,1.908,0,0,1-.8-2.577l2.368-4.5-8.993-4.737-2.368,4.5a1.907,1.907,0,0,1-2.577.8l-4.5-2.368-2.368,4.5a1.907,1.907,0,0,1-2.577.8l-6.184-3.258a1.907,1.907,0,0,1-.8-2.577l2.368-4.5-4.5-2.368a1.908,1.908,0,0,1-.8-2.577l2.368-4.5-8.993-4.737-2.368,4.5a1.907,1.907,0,0,1-2.577.8l-4.5-2.368-7.994,15.177,4.5,2.368a1.908,1.908,0,0,1,.8,2.577l-2.368,4.5,4.5,2.368a1.908,1.908,0,0,1,.8,2.577l-2.369,4.5,4.5,2.369a1.907,1.907,0,0,1,.8,2.577l-2.368,4.5,4.5,2.368a1.908,1.908,0,0,1,.8,2.577Z" transform="translate(-160.982 -811.671)" fill="#ef4848"/>
    </g>
    <g id="Group_986" data-name="Group 986" transform="translate(338.352 463.481)">
      <path id="Path_4299" data-name="Path 4299" d="M569.291,791.029a7.7,7.7,0,1,1-7.7-7.7A7.7,7.7,0,0,1,569.291,791.029Z" transform="translate(-549.459 -774.453)" fill="#f49f22" opacity="0.3"/>
      <circle id="Ellipse_412" data-name="Ellipse 412" cx="7.696" cy="7.696" r="7.696" fill="#f49f22"/>
    </g>
    <circle id="Ellipse_413" data-name="Ellipse 413" cx="13.075" cy="13.075" r="13.075" transform="translate(137.95 384.531) rotate(-80.783)" fill="#32438b" opacity="0.3"/>
    <path id="Path_4300" data-name="Path 4300" d="M158.482,542.413a13.075,13.075,0,1,1-13.075-13.075A13.075,13.075,0,0,1,158.482,542.413Z" transform="translate(0 -183.78)" fill="#606060"/>
  </g>
</svg>
