<svg width="17" height="21" viewBox="0 0 17 21" fill="none" xmlns="http://www.w3.org/2000/svg">
<path d="M5.3763 11.5423V6.33398L8.5013 4.25065L11.6263 6.33398V11.5423H9.54297V8.41732H7.45964V11.5423H5.3763ZM8.5013 18.1569C10.6194 16.2125 12.1905 14.4458 13.2148 12.8569C14.2391 11.2687 14.7513 9.85829 14.7513 8.62565C14.7513 6.73329 14.1478 5.18364 12.9409 3.97669C11.7346 2.77044 10.2548 2.16732 8.5013 2.16732C6.74783 2.16732 5.26762 2.77044 4.06068 3.97669C2.85443 5.18364 2.2513 6.73329 2.2513 8.62565C2.2513 9.85829 2.76345 11.2687 3.78776 12.8569C4.81207 14.4458 6.38325 16.2125 8.5013 18.1569ZM8.5013 20.9173C5.70616 18.5388 3.61866 16.3295 2.2388 14.2892C0.858246 12.2496 0.167969 10.3618 0.167969 8.62565C0.167969 6.02148 1.00582 3.94683 2.68151 2.40169C4.35651 0.856554 6.29644 0.0839844 8.5013 0.0839844C10.7062 0.0839844 12.6461 0.856554 14.3211 2.40169C15.9968 3.94683 16.8346 6.02148 16.8346 8.62565C16.8346 10.3618 16.1447 12.2496 14.7648 14.2892C13.3843 16.3295 11.2964 18.5388 8.5013 20.9173Z" fill="#3C4044"/>
</svg>
