<svg width="21" height="21" viewBox="0 0 21 21" fill="none" xmlns="http://www.w3.org/2000/svg">
  <path d="M6.77266 20.4966C6.23068 20.4966 5.76687 20.3038 5.38124 19.9182C4.99496 19.5319 4.80181 19.0677 4.80181 18.5258C4.80181 17.9838 4.99496 17.5196 5.38124 17.1333C5.76687 16.7477 6.23068 16.5549 6.77266 16.5549C7.31465 16.5549 7.77846 16.7477 8.16408 17.1333C8.55037 17.5196 8.74352 17.9838 8.74352 18.5258C8.74352 19.0677 8.55037 19.5319 8.16408 19.9182C7.77846 20.3038 7.31465 20.4966 6.77266 20.4966ZM16.6269 20.4966C16.0849 20.4966 15.6211 20.3038 15.2355 19.9182C14.8492 19.5319 14.6561 19.0677 14.6561 18.5258C14.6561 17.9838 14.8492 17.5196 15.2355 17.1333C15.6211 16.7477 16.0849 16.5549 16.6269 16.5549C17.1689 16.5549 17.633 16.7477 18.0193 17.1333C18.405 17.5196 18.5978 17.9838 18.5978 18.5258C18.5978 19.0677 18.405 19.5319 18.0193 19.9182C17.633 20.3038 17.1689 20.4966 16.6269 20.4966ZM5.93505 4.72979L8.30007 9.65692H15.1981L17.908 4.72979H5.93505ZM4.9989 2.75894H19.5339C19.9774 2.75894 20.2812 2.92318 20.4454 3.25165C20.6097 3.58013 20.6015 3.92503 20.4208 4.28635L16.9226 10.5931C16.7419 10.9216 16.5037 11.1761 16.2081 11.3568C15.9125 11.5374 15.5758 11.6278 15.1981 11.6278H7.85663L6.77266 13.5986H18.5978V15.5695H6.77266C6.03359 15.5695 5.47519 15.2449 5.09744 14.5959C4.71969 13.9475 4.70327 13.303 5.04817 12.6625L6.37849 10.2482L2.83096 2.75894H0.860107V0.788086H4.06274L4.9989 2.75894ZM8.30007 9.65692L5.93505 4.72979H17.908L15.1981 9.65692H8.30007Z" fill="white"/>
</svg>