<svg width="34" height="34" viewBox="0 0 34 34" fill="none" xmlns="http://www.w3.org/2000/svg">
<path d="M10.6672 33.6673C9.75052 33.6673 8.96608 33.3412 8.31386 32.689C7.66052 32.0357 7.33386 31.2507 7.33386 30.334C7.33386 29.4173 7.66052 28.6323 8.31386 27.979C8.96608 27.3268 9.75052 27.0007 10.6672 27.0007C11.5839 27.0007 12.3683 27.3268 13.0205 27.979C13.6739 28.6323 14.0005 29.4173 14.0005 30.334C14.0005 31.2507 13.6739 32.0357 13.0205 32.689C12.3683 33.3412 11.5839 33.6673 10.6672 33.6673ZM27.3339 33.6673C26.4172 33.6673 25.6327 33.3412 24.9805 32.689C24.3272 32.0357 24.0005 31.2507 24.0005 30.334C24.0005 29.4173 24.3272 28.6323 24.9805 27.979C25.6327 27.3268 26.4172 27.0007 27.3339 27.0007C28.2505 27.0007 29.0355 27.3268 29.6889 27.979C30.3411 28.6323 30.6672 29.4173 30.6672 30.334C30.6672 31.2507 30.3411 32.0357 29.6889 32.689C29.0355 33.3412 28.2505 33.6673 27.3339 33.6673ZM9.25052 7.00065L13.2505 15.334H24.9172L29.5005 7.00065H9.25052ZM7.66719 3.66732H32.2505C33.0005 3.66732 33.5144 3.9451 33.7922 4.50065C34.07 5.05621 34.0561 5.63954 33.7505 6.25065L27.8339 16.9173C27.5283 17.4729 27.1255 17.9034 26.6255 18.209C26.1255 18.5145 25.5561 18.6673 24.9172 18.6673H12.5005L10.6672 22.0007H30.6672V25.334H10.6672C9.41719 25.334 8.47275 24.7851 7.83386 23.6873C7.19497 22.5907 7.16719 21.5007 7.75052 20.4173L10.0005 16.334L4.00052 3.66732H0.667191V0.333984H6.08386L7.66719 3.66732Z" fill="#3C4044"/>
</svg>
