<svg width="26" height="25" viewBox="0 0 26 25" fill="none" xmlns="http://www.w3.org/2000/svg">
<path d="M12.998 25C11.2689 25 9.64388 24.6717 8.12305 24.015C6.60222 23.3592 5.2793 22.4688 4.1543 21.3438C3.0293 20.2188 2.13888 18.8958 1.48305 17.375C0.82638 15.8542 0.498047 14.2292 0.498047 12.5C0.498047 10.7708 0.82638 9.14584 1.48305 7.625C2.13888 6.10417 3.0293 4.78125 4.1543 3.65625C5.2793 2.53125 6.60222 1.64042 8.12305 0.98375C9.64388 0.327917 11.2689 0 12.998 0C14.7272 0 16.3522 0.327917 17.873 0.98375C19.3939 1.64042 20.7168 2.53125 21.8418 3.65625C22.9668 4.78125 23.8572 6.10417 24.5131 7.625C25.1697 9.14584 25.4981 10.7708 25.4981 12.5C25.4981 14.2292 25.1697 15.8542 24.5131 17.375C23.8572 18.8958 22.9668 20.2188 21.8418 21.3438C20.7168 22.4688 19.3939 23.3592 17.873 24.015C16.3522 24.6717 14.7272 25 12.998 25ZM11.748 18.75H14.248V13.75H19.2481V11.25H14.248V6.25H11.748V11.25H6.74805V13.75H11.748V18.75Z" fill="#3C4044"/>
</svg>
