<svg width="12" height="12" viewBox="0 0 12 17" fill="none" xmlns="http://www.w3.org/2000/svg">
<path d="M0.253906 14.5006V12.0006H12.7539V14.5006H0.253906ZM1.50391 10.7506V8.40685L7.16016 2.7506L9.5039 5.09435L3.84766 10.7506H1.50391ZM2.75391 9.5006H3.31641L7.75391 5.09435L7.16016 4.5006L2.75391 8.9381V9.5006ZM10.207 4.40685L7.86328 2.0631L8.98828 0.938101C9.10286 0.813101 9.2487 0.753101 9.42578 0.758101C9.60286 0.763518 9.7487 0.823518 9.86328 0.938101L11.332 2.40685C11.4466 2.52143 11.5039 2.66477 11.5039 2.83685C11.5039 3.00852 11.4466 3.15685 11.332 3.28185L10.207 4.40685Z" fill="#3C4044"/>
</svg>
