<svg width="78" height="78" viewBox="0 0 78 78" fill="none" xmlns="http://www.w3.org/2000/svg">
<mask id="mask0_127_3355" style="mask-type:alpha" maskUnits="userSpaceOnUse" x="0" y="0" width="78" height="78">
<rect width="77.6006" height="77.6006" transform="matrix(-1 0 0 1 77.6006 0.251953)" fill="#D9D9D9"/>
</mask>
<g mask="url(#mask0_127_3355)">
<path d="M38.8003 51.9858L25.8669 39.0523L38.8003 26.1189L43.327 30.6456L38.1537 35.819H51.7338V42.2857H38.1537L43.327 47.4591L38.8003 51.9858ZM38.8003 71.3859C43.2731 71.3859 47.4765 70.5366 51.4104 68.838C55.3443 67.1416 58.7663 64.8384 61.6763 61.9284C64.5864 59.0183 66.8896 55.5964 68.586 51.6624C70.2846 47.7285 71.1339 43.5252 71.1339 39.0523C71.1339 34.5795 70.2846 30.3762 68.586 26.4422C66.8896 22.5083 64.5864 19.0863 61.6763 16.1763C58.7663 13.2663 55.3443 10.962 51.4104 9.2634C47.4765 7.56697 43.2731 6.71875 38.8003 6.71875C34.3275 6.71875 30.1241 7.56697 26.1902 9.2634C22.2563 10.962 18.8343 13.2663 15.9243 16.1763C13.0143 19.0863 10.7111 22.5083 9.01462 26.4422C7.31603 30.3762 6.46674 34.5795 6.46674 39.0523C6.46674 43.5252 7.31603 47.7285 9.01462 51.6624C10.7111 55.5964 13.0143 59.0183 15.9243 61.9284C18.8343 64.8384 22.2563 67.1416 26.1902 68.838C30.1241 70.5366 34.3275 71.3859 38.8003 71.3859ZM38.8003 64.9192C31.633 64.9192 25.5295 62.4004 20.4898 57.3629C15.4522 52.3231 12.9335 46.2196 12.9335 39.0523C12.9335 31.8851 15.4522 25.7816 20.4898 20.7418C25.5295 15.7043 31.633 13.1855 38.8003 13.1855C45.9676 13.1855 52.07 15.7043 57.1076 20.7418C62.1473 25.7816 64.6672 31.8851 64.6672 39.0523C64.6672 46.2196 62.1473 52.3231 57.1076 57.3629C52.07 62.4004 45.9676 64.9192 38.8003 64.9192Z" fill="#559EFF"/>
</g>
</svg>
