<svg width="18" height="17" viewBox="0 0 18 17" fill="none" xmlns="http://www.w3.org/2000/svg">
  <path d="M8.97018 16.3275L7.73903 15.2237C5.5173 13.2425 3.7518 11.5195 2.44254 10.0546C1.13384 8.5902 0.479492 7.04433 0.479492 5.41695C0.479492 4.08674 0.925253 2.97587 1.81677 2.08435C2.7083 1.19283 3.81916 0.74707 5.14937 0.74707C5.89938 0.74707 6.60694 0.906129 7.27204 1.22425C7.93714 1.54293 8.50319 1.97822 8.97018 2.53011C9.43716 1.97822 10.0032 1.54293 10.6683 1.22425C11.3334 0.906129 12.041 0.74707 12.791 0.74707C14.1212 0.74707 15.2321 1.19283 16.1236 2.08435C17.0151 2.97587 17.4609 4.08674 17.4609 5.41695C17.4609 7.04433 16.8065 8.5902 15.4978 10.0546C14.1885 11.5195 12.4231 13.2425 10.2013 15.2237L8.97018 16.3275ZM8.97018 14.035C10.9938 12.1953 12.6319 10.6104 13.8846 9.28021C15.1367 7.95 15.7627 6.66225 15.7627 5.41695C15.7627 4.56788 15.4797 3.86032 14.9137 3.29428C14.3476 2.72823 13.6401 2.44521 12.791 2.44521C12.1259 2.44521 11.5103 2.63257 10.9443 3.00729C10.3782 3.38258 9.98906 3.86032 9.77679 4.44052H8.16356C7.95129 3.86032 7.56214 3.38258 6.99609 3.00729C6.43005 2.63257 5.81447 2.44521 5.14937 2.44521C4.3003 2.44521 3.59274 2.72823 3.0267 3.29428C2.46065 3.86032 2.17763 4.56788 2.17763 5.41695C2.17763 6.66225 2.80396 7.95 4.05662 9.28021C5.30871 10.6104 6.94656 12.1953 8.97018 14.035Z" fill="white"/>
  <path d="M3.97791 2.32257C5.65627 1.02413 7.79181 2.86358 8.64978 3.94561C9.67901 3.4046 12.1809 2.27496 13.9545 2.08451C16.1715 1.84646 16.8445 6.08309 16.2903 7.38955C15.8469 8.43473 11.3284 12.9189 9.12453 15.0304C8.46482 14.5421 6.51191 12.9401 3.97791 10.438C0.810411 7.31037 1.87995 3.94561 3.97791 2.32257Z" fill="white" stroke="white"/>
</svg>

