<svg width="34" height="28" viewBox="0 0 34 28" fill="none" xmlns="http://www.w3.org/2000/svg">
<path d="M3.66536 27.3327C2.7487 27.3327 1.96425 27.0066 1.31203 26.3543C0.658698 25.701 0.332031 24.916 0.332031 23.9993V3.99935C0.332031 3.08268 0.658698 2.29824 1.31203 1.64602C1.96425 0.992682 2.7487 0.666016 3.66536 0.666016H30.332C31.2487 0.666016 32.0337 0.992682 32.687 1.64602C33.3393 2.29824 33.6654 3.08268 33.6654 3.99935V23.9993C33.6654 24.916 33.3393 25.701 32.687 26.3543C32.0337 27.0066 31.2487 27.3327 30.332 27.3327H3.66536ZM16.9987 15.666L3.66536 7.33268V23.9993H30.332V7.33268L16.9987 15.666ZM16.9987 12.3327L30.332 3.99935H3.66536L16.9987 12.3327Z" fill="#3C4044"/>
</svg>
