<svg width="79" height="78" viewBox="0 0 79 78" fill="none" xmlns="http://www.w3.org/2000/svg">
<mask id="mask0_127_3354" style="mask-type:alpha" maskUnits="userSpaceOnUse" x="0" y="0" width="79" height="78">
<rect x="0.548828" y="0.251953" width="77.6006" height="77.6006" fill="#D9D9D9"/>
</mask>
<g mask="url(#mask0_127_3354)">
<path d="M39.3491 51.9858L52.2825 39.0523L39.3491 26.1189L34.8224 30.6456L39.9958 35.819H26.4157V42.2857H39.9958L34.8224 47.4591L39.3491 51.9858ZM39.3491 71.3859C34.8763 71.3859 30.6729 70.5366 26.739 68.838C22.8051 67.1416 19.3831 64.8384 16.4731 61.9284C13.5631 59.0183 11.2598 55.5964 9.56339 51.6624C7.8648 47.7285 7.0155 43.5252 7.0155 39.0523C7.0155 34.5795 7.8648 30.3762 9.56339 26.4422C11.2598 22.5083 13.5631 19.0863 16.4731 16.1763C19.3831 13.2663 22.8051 10.962 26.739 9.2634C30.6729 7.56697 34.8763 6.71875 39.3491 6.71875C43.8219 6.71875 48.0253 7.56697 51.9592 9.2634C55.8931 10.962 59.3151 13.2663 62.2251 16.1763C65.1351 19.0863 67.4384 22.5083 69.1348 26.4422C70.8334 30.3762 71.6827 34.5795 71.6827 39.0523C71.6827 43.5252 70.8334 47.7285 69.1348 51.6624C67.4384 55.5964 65.1351 59.0183 62.2251 61.9284C59.3151 64.8384 55.8931 67.1416 51.9592 68.838C48.0253 70.5366 43.8219 71.3859 39.3491 71.3859ZM39.3491 64.9192C46.5164 64.9192 52.6199 62.4004 57.6596 57.3629C62.6972 52.3231 65.216 46.2196 65.216 39.0523C65.216 31.8851 62.6972 25.7816 57.6596 20.7418C52.6199 15.7043 46.5164 13.1855 39.3491 13.1855C32.1818 13.1855 26.0794 15.7043 21.0418 20.7418C16.0021 25.7816 13.4822 31.8851 13.4822 39.0523C13.4822 46.2196 16.0021 52.3231 21.0418 57.3629C26.0794 62.4004 32.1818 64.9192 39.3491 64.9192Z" fill="#559EFF"/>
</g>
</svg>
