<svg width="32" height="32" viewBox="0 0 32 32" fill="none" xmlns="http://www.w3.org/2000/svg">
<path fill-rule="evenodd" clip-rule="evenodd" d="M21.5237 20.7716L29.2907 28.5388C29.4922 28.7474 29.4893 29.0791 29.2842 29.2842C29.0791 29.4894 28.7474 29.4923 28.5387 29.2907L20.7718 21.5236C16.6849 25.2028 10.4107 24.9559 6.62562 20.9669C2.8405 16.978 2.92281 10.6996 6.81121 6.81121C10.6996 2.92286 16.9781 2.84055 20.9671 6.62562C24.9561 10.4107 25.203 16.6848 21.5237 20.7716ZM4.98375 14.0243C4.98375 19.0173 9.03142 23.0649 14.0245 23.0649C19.0151 23.0591 23.0593 19.0149 23.0652 14.0243C23.0652 9.03132 19.0175 4.9837 14.0245 4.9837C9.03142 4.9837 4.98375 9.03132 4.98375 14.0243Z" fill="black"/>
</svg>
