<svg width="17" height="23" viewBox="0 0 17 23" fill="none" xmlns="http://www.w3.org/2000/svg">
<path d="M2.08301 22.3594C1.53301 22.3594 1.06234 22.1637 0.671008 21.7724C0.279008 21.3804 0.0830078 20.9094 0.0830078 20.3594V9.35938C0.0830078 8.80937 0.279008 8.33837 0.671008 7.94637C1.06234 7.55504 1.53301 7.35938 2.08301 7.35938H5.08301V9.35938H2.08301V20.3594H14.083V9.35938H11.083V7.35938H14.083C14.633 7.35938 15.104 7.55504 15.496 7.94637C15.8873 8.33837 16.083 8.80937 16.083 9.35938V20.3594C16.083 20.9094 15.8873 21.3804 15.496 21.7724C15.104 22.1637 14.633 22.3594 14.083 22.3594H2.08301ZM7.08301 15.3594V4.18437L5.48301 5.78438L4.08301 4.35938L8.08301 0.359375L12.083 4.35938L10.683 5.78438L9.08301 4.18437V15.3594H7.08301Z" fill="white"/>
</svg>
