<svg width="38" height="28" viewBox="0 0 38 28" fill="none" xmlns="http://www.w3.org/2000/svg">
<path d="M9.00496 27.3307C7.61608 27.3307 6.43552 26.8446 5.4633 25.8724C4.49108 24.9002 4.00496 23.7196 4.00496 22.3307H0.671631V3.99739C0.671631 3.08073 0.998298 2.29628 1.65163 1.64406C2.30385 0.990729 3.0883 0.664062 4.00496 0.664062H27.3383V7.33073H32.3383L37.3383 13.9974V22.3307H34.005C34.005 23.7196 33.5189 24.9002 32.5466 25.8724C31.5744 26.8446 30.3939 27.3307 29.005 27.3307C27.6161 27.3307 26.4355 26.8446 25.4633 25.8724C24.4911 24.9002 24.005 23.7196 24.005 22.3307H14.005C14.005 23.7196 13.5189 24.9002 12.5466 25.8724C11.5744 26.8446 10.3939 27.3307 9.00496 27.3307ZM9.00496 23.9974C9.47719 23.9974 9.8733 23.8374 10.1933 23.5174C10.5122 23.1985 10.6716 22.8029 10.6716 22.3307C10.6716 21.8585 10.5122 21.4629 10.1933 21.1441C9.8733 20.8241 9.47719 20.6641 9.00496 20.6641C8.53274 20.6641 8.13663 20.8241 7.81663 21.1441C7.49774 21.4629 7.3383 21.8585 7.3383 22.3307C7.3383 22.8029 7.49774 23.1985 7.81663 23.5174C8.13663 23.8374 8.53274 23.9974 9.00496 23.9974ZM4.00496 18.9974H5.3383C5.81052 18.4974 6.35219 18.0946 6.9633 17.7891C7.57441 17.4835 8.25496 17.3307 9.00496 17.3307C9.75496 17.3307 10.4355 17.4835 11.0466 17.7891C11.6577 18.0946 12.1994 18.4974 12.6716 18.9974H24.005V3.99739H4.00496V18.9974ZM29.005 23.9974C29.4772 23.9974 29.8727 23.8374 30.1916 23.5174C30.5116 23.1985 30.6716 22.8029 30.6716 22.3307C30.6716 21.8585 30.5116 21.4629 30.1916 21.1441C29.8727 20.8241 29.4772 20.6641 29.005 20.6641C28.5327 20.6641 28.1372 20.8241 27.8183 21.1441C27.4983 21.4629 27.3383 21.8585 27.3383 22.3307C27.3383 22.8029 27.4983 23.1985 27.8183 23.5174C28.1372 23.8374 28.5327 23.9974 29.005 23.9974ZM27.3383 15.6641H34.4216L30.6716 10.6641H27.3383V15.6641Z" fill="#3C4044"/>
</svg>
