<svg width="24" height="24" viewBox="0 0 24 24" fill="none" xmlns="http://www.w3.org/2000/svg">
<path fill-rule="evenodd" clip-rule="evenodd" d="M18.0936 5.4296C18.6949 8.0454 17.4098 10.7298 14.9952 11.9018C18.6302 13.0124 21.115 16.365 21.12 20.1659V21.6059C21.12 21.871 20.9051 22.0859 20.64 22.0859C20.3749 22.0859 20.16 21.871 20.16 21.6059V20.1659C20.16 15.9243 16.7216 12.4859 12.48 12.4859C8.23848 12.4859 4.80003 15.9243 4.80003 20.1659V21.6059C4.80003 21.871 4.58512 22.0859 4.32003 22.0859C4.05493 22.0859 3.84003 21.871 3.84003 21.6059V20.1659C3.8451 16.365 6.32983 13.0124 9.96483 11.9018C7.55022 10.7298 6.26514 8.0454 6.86643 5.4296C7.46772 2.8138 9.79601 0.959999 12.48 0.959999C15.164 0.959999 17.4923 2.8138 18.0936 5.4296ZM12.48 1.92589C9.82906 1.92589 7.68003 4.07493 7.68003 6.72589C7.68299 9.37563 9.83029 11.5229 12.48 11.5259C15.131 11.5259 17.28 9.37686 17.28 6.72589C17.28 4.07493 15.131 1.92589 12.48 1.92589Z" fill="black"/>
</svg>
